<svg width="21" height="21" viewBox="0 0 21 21" fill="none" xmlns="http://www.w3.org/2000/svg">
<path d="M17.2498 10.5C16.8355 10.5 16.4998 10.8358 16.4998 11.25V18.7499C16.4998 19.1641 16.164 19.4999 15.7497 19.4999H2.24997C1.83575 19.4999 1.49997 19.1641 1.49997 18.7499V3.75011C1.49997 3.33589 1.83575 3.00011 2.24997 3.00011H11.2499C11.6641 3.00011 11.9999 2.66433 11.9999 2.2501C11.9999 1.83588 11.6641 1.50014 11.2499 1.50014H2.24997C1.00735 1.50014 0 2.50749 0 3.75011V18.7499C0 19.9925 1.00735 20.9999 2.24997 20.9999H15.7498C16.9924 20.9999 17.9998 19.9925 17.9998 18.7499V11.25C17.9998 10.8358 17.664 10.5 17.2498 10.5Z" fill="white"/>
<path d="M20.1592 0.84119C19.6207 0.302604 18.8903 8.80081e-05 18.1287 0.000175898C17.3667 -0.00202134 16.6355 0.301022 16.0985 0.841674L6.2196 10.7198C6.13764 10.8023 6.07581 10.9027 6.03885 11.013L4.53889 15.5129C4.40798 15.9059 4.62045 16.3306 5.01345 16.4615C5.08969 16.4869 5.16954 16.4998 5.24987 16.4999C5.33038 16.4998 5.4104 16.4869 5.48686 16.4617L9.98681 14.9617C10.0973 14.9248 10.1977 14.8627 10.28 14.7802L20.1589 4.90138C21.2802 3.78026 21.2803 1.96244 20.1592 0.84119ZM19.0984 3.84161L9.34855 13.5915L6.43559 14.5642L7.40532 11.655L17.1589 1.90514C17.6952 1.36998 18.5637 1.37086 19.0989 1.90707C19.3545 2.16322 19.4986 2.50999 19.4997 2.87188C19.5006 3.2357 19.3561 3.58479 19.0984 3.84161Z" fill="white"/>
</svg>
