<svg width="18" height="18" viewBox="0 0 18 18" fill="none" xmlns="http://www.w3.org/2000/svg">
<g clip-path="url(#clip0)">
<path d="M5.46078 2.0089C3.64915 2.0089 2.17529 3.57159 2.17529 5.49239C2.17529 7.41319 3.64915 8.97588 5.46078 8.97588C7.27242 8.97588 8.74631 7.41319 8.74631 5.49239C8.74631 3.57159 7.27246 2.0089 5.46078 2.0089Z" fill="white"/>
<path d="M12.9305 2.50738C12.9231 2.50738 12.9155 2.50741 12.9081 2.50745C12.1478 2.51374 11.4377 2.83475 10.9085 3.41142C10.3886 3.97789 10.1059 4.72521 10.1124 5.51566C10.119 6.30612 10.4139 7.04865 10.9431 7.60651C11.4764 8.16869 12.1829 8.47744 12.9347 8.47744C12.9423 8.47744 12.9498 8.4774 12.9574 8.47737C13.7177 8.47107 14.4279 8.15003 14.9571 7.57339C15.4769 7.00692 15.7596 6.2596 15.7531 5.46912C15.7396 3.83105 14.4756 2.50738 12.9305 2.50738Z" fill="white"/>
<path d="M13.0689 9.04774H12.7961C11.5256 9.04774 10.3661 9.53079 9.49072 10.3225C9.70975 10.4906 9.91822 10.6737 10.1158 10.8713C10.6987 11.4542 11.1564 12.1334 11.4763 12.89C11.7646 13.5713 11.9292 14.2892 11.9675 15.0285H17.9999V13.9784C17.9999 11.2598 15.7879 9.04774 13.0689 9.04774Z" fill="white"/>
<path d="M10.9107 15.0285C10.8113 13.4258 9.99879 12.016 8.78625 11.1125C7.90418 10.455 6.81012 10.0659 5.625 10.0659H5.29664C2.37129 10.0659 0 12.4372 0 15.3625V15.9911H10.9213V15.3625C10.9213 15.2504 10.9178 15.1389 10.9107 15.0285Z" fill="white"/>
</g>
<defs>
<clipPath id="clip0">
<rect width="18" height="18" fill="white"/>
</clipPath>
</defs>
</svg>
