<svg width="447" height="447" viewBox="0 0 447 447" fill="none" xmlns="http://www.w3.org/2000/svg">
<g clip-path="url(#clip0)">
<path d="M318.75 280.5H298.35L290.701 272.85C316.201 244.8 331.501 206.55 331.501 165.75C331.5 73.95 257.55 0 165.75 0C73.95 0 0 73.95 0 165.75C0 257.55 73.95 331.5 165.75 331.5C206.55 331.5 244.8 316.2 272.85 290.7L280.5 298.349V318.749L408 446.25L446.25 408L318.75 280.5ZM165.75 280.5C102 280.5 51 229.5 51 165.75C51 102 102 51 165.75 51C229.5 51 280.5 102 280.5 165.75C280.5 229.5 229.5 280.5 165.75 280.5Z" fill="white"/>
</g>
<defs>
<clipPath id="clip0">
<rect width="446.25" height="446.25" fill="white"/>
</clipPath>
</defs>
</svg>
