<svg width="512" height="512" viewBox="0 0 512 512" fill="none" xmlns="http://www.w3.org/2000/svg">
<path d="M256 157C187.075 157 131 213.075 131 282C131 350.925 187.075 407 256 407C324.925 407 381 350.925 381 282C381 213.075 324.925 157 256 157ZM256 367C209.131 367 171 328.869 171 282C171 235.131 209.131 197 256 197C302.869 197 341 235.131 341 282C341 328.869 302.869 367 256 367Z" fill="white"/>
<path d="M452 97H378.425C376.096 97 373.997 95.729 372.917 93.673L352.562 50.9C352.506 50.783 352.45 50.667 352.391 50.551C344.512 34.791 328.67 25 311.049 25H202.376C184.755 25 168.913 34.791 161.034 50.552C160.975 50.668 160.919 50.784 160.863 50.901L140.507 93.676C139.427 95.729 137.329 97 135 97H60C26.916 97 0 123.916 0 157V427C0 460.084 26.916 487 60 487H452C485.084 487 512 460.084 512 427V157C512 123.916 485.084 97 452 97ZM472 426.999C472 438.027 463.028 446.999 452 446.999H60C48.972 446.999 40 438.027 40 426.999V157C40 145.972 48.972 137 60 137H135C152.62 137 168.462 127.21 176.342 111.45C176.401 111.334 176.457 111.217 176.514 111.1L196.87 68.325C197.949 66.271 200.047 65 202.376 65H311.049C313.378 65 315.476 66.271 316.555 68.324L336.911 111.099C336.968 111.216 337.024 111.333 337.083 111.449C344.963 127.209 360.805 136.999 378.425 136.999H452C463.028 136.999 472 145.971 472 156.999V426.999Z" fill="white"/>
<path d="M432 177H392V217H432V177Z" fill="white"/>
</svg>
