<svg width="331" height="331" viewBox="0 0 331 331" fill="none" xmlns="http://www.w3.org/2000/svg">
<g clip-path="url(#clip0)">
<path d="M308.078 55.614C293.913 41.448 275.079 33.647 255.046 33.647C235.013 33.647 216.179 41.448 202.013 55.614L83.786 173.84C66.241 191.385 66.241 219.933 83.787 237.48C101.333 255.025 129.882 255.024 147.427 237.478L225.277 159.628C231.135 153.77 231.135 144.273 225.277 138.415C219.42 132.557 209.922 132.557 204.064 138.415L126.214 216.265C120.366 222.115 110.849 222.114 105 216.266C99.151 210.417 99.151 200.9 104.999 195.052L223.226 76.828C231.726 68.329 243.026 63.648 255.046 63.648C267.066 63.648 278.366 68.329 286.865 76.828C304.41 94.374 304.411 122.922 286.867 140.468L158.034 269.298C128.79 298.54 81.209 298.539 51.968 269.298C37.802 255.133 30 236.299 30 216.266C30 196.233 37.802 177.398 51.968 163.232L180.798 34.4C186.656 28.542 186.656 19.045 180.798 13.187C174.941 7.33001 165.443 7.32901 159.585 13.187L30.755 142.019C10.922 161.851 0 188.219 0 216.266C0 244.313 10.922 270.681 30.755 290.512C51.227 310.984 78.109 321.219 105 321.216C131.885 321.214 158.779 310.979 179.247 290.512L308.08 161.68C337.321 132.437 337.32 84.857 308.078 55.614Z" fill="white"/>
</g>
<defs>
<clipPath id="clip0">
<rect width="330.01" height="330.01" fill="white"/>
</clipPath>
</defs>
</svg>
