<svg width="511" height="511" viewBox="0 0 511 511" fill="none" xmlns="http://www.w3.org/2000/svg">
<g clip-path="url(#clip0)">
<path d="M422.139 273.547C422.139 265.134 415.317 258.311 406.899 258.311C398.482 258.311 391.66 265.134 391.66 273.547C391.66 348.089 331.02 408.728 256.479 408.728C181.941 408.728 121.301 348.089 121.301 273.547C121.301 265.134 114.479 258.311 106.062 258.311C97.6446 258.311 90.822 265.134 90.822 273.547C90.822 359.758 157.013 430.779 241.239 438.498V479.523H184.685C176.268 479.523 169.446 486.346 169.446 494.763C169.446 503.18 176.268 510.003 184.685 510.003H328.276C336.689 510.003 343.512 503.18 343.512 494.763C343.512 486.346 336.689 479.523 328.276 479.523H271.718V438.498C355.948 430.783 422.139 359.758 422.139 273.547Z" fill="white"/>
<path d="M256.479 371.126C310.284 371.126 354.057 327.352 354.057 273.547V96.5768C354.057 42.7758 310.284 -0.998047 256.479 -0.998047C202.677 -0.998047 158.904 42.7758 158.904 96.5768V273.547C158.904 327.352 202.677 371.126 256.479 371.126V371.126ZM189.379 96.5768C189.379 59.5788 219.481 29.4814 256.479 29.4814C293.477 29.4814 323.578 59.5788 323.578 96.5768V273.547C323.578 310.545 293.477 340.647 256.479 340.647C219.481 340.647 189.379 310.545 189.379 273.547V96.5768Z" fill="white"/>
</g>
<defs>
<clipPath id="clip0">
<rect width="511" height="511" fill="white"/>
</clipPath>
</defs>
</svg>
