<svg width="478" height="478" viewBox="0 0 478 478" fill="none" xmlns="http://www.w3.org/2000/svg">
<g clip-path="url(#clip0)">
<path d="M238.933 0C106.974 0 0 106.974 0 238.933C0 370.892 106.974 477.866 238.933 477.866C370.892 477.866 477.866 370.892 477.866 238.933C477.726 107.033 370.834 0.141 238.933 0ZM238.933 443.733C125.825 443.733 34.133 352.041 34.133 238.933C34.133 125.825 125.825 34.133 238.933 34.133C352.041 34.133 443.733 125.825 443.733 238.933C443.611 351.991 351.991 443.611 238.933 443.733Z" fill="white"/>
<path d="M153.6 238.933C172.451 238.933 187.733 223.651 187.733 204.8C187.733 185.949 172.451 170.667 153.6 170.667C134.749 170.667 119.467 185.949 119.467 204.8C119.467 223.651 134.749 238.933 153.6 238.933Z" fill="white"/>
<path d="M324.267 238.933C343.118 238.933 358.4 223.651 358.4 204.8C358.4 185.949 343.118 170.667 324.267 170.667C305.416 170.667 290.134 185.949 290.134 204.8C290.134 223.651 305.416 238.933 324.267 238.933Z" fill="white"/>
<path d="M304.287 296.61C298.65 289.056 287.956 287.502 280.402 293.14C280.075 293.384 279.758 293.639 279.449 293.906C255.314 311.534 222.551 311.534 198.416 293.906C191.285 287.742 180.507 288.527 174.344 295.658C168.18 302.789 168.965 313.567 176.096 319.73C176.404 319.997 176.722 320.252 177.049 320.496C213.58 348.418 264.285 348.418 300.816 320.496C308.371 314.858 309.925 304.164 304.287 296.61Z" fill="white"/>
</g>
<defs>
<clipPath id="clip0">
<rect width="477.867" height="477.867" fill="white"/>
</clipPath>
</defs>
</svg>
